Coordinates
version=1
nRows=17
nColumns=40
inDegrees=yes

Units are S.I. units (second, meters, Newtons, ...)
Angles are in degrees.

endheader
time	pelvis_tilt	pelvis_list	pelvis_rotation	pelvis_tx	pelvis_ty	pelvis_tz	hip_flexion_r	hip_adduction_r	hip_rotation_r	knee_angle_r	knee_angle_r_beta	ankle_angle_r	subtalar_angle_r	mtp_angle_r	hip_flexion_l	hip_adduction_l	hip_rotation_l	knee_angle_l	knee_angle_l_beta	ankle_angle_l	subtalar_angle_l	mtp_angle_l	lumbar_extension	lumbar_bending	lumbar_rotation	arm_flex_r	arm_add_r	arm_rot_r	elbow_flex_r	pro_sup_r	wrist_flex_r	wrist_dev_r	arm_flex_l	arm_add_l	arm_rot_l	elbow_flex_l	pro_sup_l	wrist_flex_l	wrist_dev_l
      3.69000000	      4.88312198	    -13.03455039	      5.77331559	     -1.04517427	      0.91446635	      0.17542236	     29.61018114	     -7.16752228	      9.67348945	     19.34604705	     19.34604705	    -26.24563700	      0.00000000	      0.00000000	     32.09019663	     -4.14495903	     -7.94305605	     89.69051254	     89.69051254	      6.88511370	      0.00000000	      0.00000000	    -51.15669014	     17.50771448	     -2.05020083	    -15.78174944	    -46.18149470	    -27.76533683	     97.32745414	     81.87945545	      0.00000000	      0.00000000	    -24.92462409	    -25.96619344	    -14.86949915	     85.62377877	     53.44834845	      0.00000000	      0.00000000
      3.69500000	      4.86286051	    -13.06442876	      6.05876189	     -1.02207628	      0.91125009	      0.17298622	     29.02262167	     -7.20543284	      9.32219901	     20.85493199	     20.85493199	    -23.44077202	      0.00000000	      0.00000000	     32.99775377	     -4.54918214	     -8.18182453	     91.56736990	     91.56736990	      7.50070738	      0.00000000	      0.00000000	    -51.38920232	     17.58133954	     -2.02960993	    -12.76633676	    -45.76840434	    -25.18898635	     97.20154850	     79.58398349	      0.00000000	      0.00000000	    -22.76275900	    -25.13813083	    -10.22487215	     81.23567107	     45.31010374	      0.00000000	      0.00000000
      3.70000000	      4.86142017	    -13.10365279	      6.36354060	     -0.99899592	      0.90780804	      0.17077378	     28.39882993	     -7.23249043	      8.86487692	     22.63922829	     22.63922829	    -19.85459876	      0.00000000	      0.00000000	     33.99238566	     -4.99402125	     -8.42492682	     93.32439455	     93.32439455	      8.13459152	      0.00000000	      0.00000000	    -51.62165748	     17.60226040	     -1.93238457	     -9.78848664	    -45.13922926	    -22.66004216	     97.07767273	     76.27238838	      0.00000000	      0.00000000	    -20.63037419	    -24.30146599	     -5.90710299	     76.51816487	     42.16492108	      0.00000000	      0.00000000
      3.70500000	      4.87589999	    -13.15189725	      6.66771342	     -0.97597033	      0.90417426	      0.16873711	     27.74868958	     -7.25539831	      8.31345928	     24.62113307	     24.62113307	    -15.67177643	      0.00000000	      0.00000000	     35.07190934	     -5.48173409	     -8.69048472	     94.94442383	     94.94442383	      8.78225347	      0.00000000	      0.00000000	    -51.86617593	     17.56357817	     -1.75217714	     -6.88430851	    -44.32645586	    -20.22699877	     96.98924716	     71.86363826	      0.00000000	      0.00000000	    -18.60491180	    -23.44066257	     -1.86576802	     71.75020526	     41.47643778	      0.00000000	      0.00000000
      3.71000000	      4.90408674	    -13.21278315	      6.95152916	     -0.95303694	      0.90039961	      0.16680369	     27.08189579	     -7.27657162	      7.69881499	     26.72030750	     26.72030750	    -11.14433585	      0.00000000	      0.00000000	     36.23038934	     -6.01641931	     -8.99536480	     96.40708882	     96.40708882	      9.44081256	      0.00000000	      0.00000000	    -52.13637764	     17.46380684	     -1.48539231	     -4.05472325	    -43.37150818	    -17.95101349	     96.93393426	     66.99023044	      0.00000000	      0.00000000	    -16.75055551	    -22.53812351	      1.86478562	     67.16950049	     41.53709365	      0.00000000	      0.00000000
      3.71500000	      4.94568332	    -13.29214048	      7.19553442	     -0.93022758	      0.89655499	      0.16488163	     26.40632653	     -7.29344599	      7.06502034	     28.86742290	     28.86742290	     -6.53586675	      0.00000000	      0.00000000	     37.45601014	     -6.60363009	     -9.35613372	     97.68885434	     97.68885434	     10.10501567	      0.00000000	      0.00000000	    -52.44808019	     17.30520719	     -1.11326654	     -1.25480121	    -42.30111763	    -16.13957837	     96.63023742	     66.98136812	      0.00000000	      0.00000000	    -15.10368543	    -21.58758706	      5.24334778	     62.95104963	     41.30246342	      0.00000000	      0.00000000
      3.72000000	      5.00087196	    -13.39591995	      7.38046740	     -0.90756238	      0.89272515	      0.16286912	     25.72784316	     -7.30032059	      6.45923990	     31.01083095	     31.01083095	     -2.07663436	      0.00000000	      0.00000000	     38.73204928	     -7.24937902	     -9.78957954	     98.76421794	     98.76421794	     10.76445835	      0.00000000	      0.00000000	    -52.80121134	     17.09395088	     -0.67642863	      1.44530808	    -41.22221219	    -14.05204843	     96.76694649	     59.98132335	      0.00000000	      0.00000000	    -13.66217385	    -20.52876534	      7.84925620	     58.43478781	     50.37015183	      0.00000000	      0.00000000
      3.72500000	      5.06841888	    -13.52772101	      7.48738515	     -0.88504477	      0.88899753	      0.16066895	     25.04866275	     -7.29206178	      5.92357027	     33.11260376	     33.11260376	      2.06194931	      0.00000000	      0.00000000	     40.03899763	     -7.95907448	    -10.31325952	     99.60905774	     99.60905774	     11.40551069	      0.00000000	      0.00000000	    -53.20185017	     16.82951998	     -0.12810896	      4.15519172	    -40.11809774	    -12.45976767	     96.54534938	     60.01061074	      0.00000000	      0.00000000	    -12.52536259	    -19.44398940	     10.20586228	     55.07421472	     50.21907106	      0.00000000	      0.00000000
      3.73000000	      5.14202011	    -13.68503896	      7.49666692	     -0.86266149	      0.88544496	      0.15820976	     24.36837661	     -7.26888321	      5.49298543	     35.13989859	     35.13989859	      5.77531024	      0.00000000	      0.00000000	     41.35887889	     -8.73588000	    -10.94683376	    100.20381208	    100.20381208	     12.01191716	      0.00000000	      0.00000000	    -53.63708620	     16.51960573	      0.50837859	      6.81782516	    -39.06209412	    -10.92671206	     96.43175952	     60.01375834	      0.00000000	      0.00000000	    -11.35327246	    -18.15718381	     10.76694178	     50.39605602	     74.02469022	      0.00000000	      0.00000000
      3.73500000	      5.21047518	    -13.85795486	      7.39007825	     -0.84038605	      0.88211757	      0.15546050	     23.68226025	     -7.23884347	      5.19278689	     37.05645707	     37.05645707	      9.02023998	      0.00000000	      0.00000000	     42.67658162	     -9.57992644	    -11.71038045	    100.53645773	    100.53645773	     12.56993353	      0.00000000	      0.00000000	    -54.07726205	     16.13445124	      1.24824296	      9.42158660	    -38.05635255	     -9.60248506	     96.27094361	     62.70598345	      0.00000000	      0.00000000	    -10.57910916	    -16.94252948	     11.60007559	     47.54048940	     79.47647164	      0.00000000	      0.00000000
      3.74000000	      5.25831452	    -14.03226606	      7.15671845	     -0.81818590	      0.87903740	      0.15243041	     22.98325327	     -7.21678188	      5.03328289	     38.82271088	     38.82271088	     11.80412976	      0.00000000	      0.00000000	     43.98327898	    -10.48719389	    -12.61685441	    100.60284089	    100.60284089	     13.06501359	      0.00000000	      0.00000000	    -54.48998620	     15.66148552	      2.06250940	     11.91054553	    -37.12794612	     -8.18309322	     96.41819863	     62.80677151	      0.00000000	      0.00000000	    -10.09450200	    -15.78260634	     12.29219810	     45.51001025	     79.48981297	      0.00000000	      0.00000000
      3.74500000	      5.26812297	    -14.19497717	      6.79709934	     -0.79602662	      0.87620289	      0.14916259	     22.26462503	     -7.21835086	      5.00791371	     40.40130691	     40.40130691	     14.16765521	      0.00000000	      0.00000000	     45.27764428	    -11.45051628	    -13.66580814	    100.40591691	    100.40591691	     13.48148422	      0.00000000	      0.00000000	    -54.84913185	     15.09176909	      2.96562564	     14.33916264	    -36.21260043	     -7.33258638	     96.28131960	     71.37170341	      0.00000000	      0.00000000	     -9.70368655	    -14.64528687	     12.28780162	     43.67146649	     83.24897920	      0.00000000	      0.00000000
      3.75000000	      5.22337824	    -14.33706450	      6.32497027	     -0.77387412	      0.87359847	      0.14572030	     21.52131272	     -7.25574892	      5.09597661	     41.76351568	     41.76351568	     16.16867480	      0.00000000	      0.00000000	     46.56416328	    -12.45874364	    -14.84183069	     99.95283118	     99.95283118	     13.80170572	      0.00000000	      0.00000000	    -55.10977744	     14.41955211	      3.91130274	     16.57728191	    -35.34791333	     -6.31494066	     96.60823227	     75.59776794	      0.00000000	      0.00000000	     -9.54179063	    -13.64108974	     12.19150044	     42.52087360	     83.77443373	      0.00000000	      0.00000000
      3.75500000	      5.11156914	    -14.45450533	      5.76649573	     -0.75169446	      0.87120671	      0.14217132	     20.74776659	     -7.33524601	      5.26698076	     42.89088175	     42.89088175	     17.86906194	      0.00000000	      0.00000000	     47.84922282	    -13.49670614	    -16.11691763	     99.25269729	     99.25269729	     14.00962919	      0.00000000	      0.00000000	    -55.24582570	     13.65233995	      4.89624466	     18.61854289	    -34.49536225	     -5.33501914	     97.20496675	     78.81051294	      0.00000000	      0.00000000	     -9.54022060	    -12.78856379	     11.89789472	     41.87227413	     83.88321640	      0.00000000	      0.00000000
      3.76000000	      4.92523353	    -14.54939820	      5.15868603	     -0.72945417	      0.86901247	      0.13857088	     19.93598231	     -7.45649197	      5.48394373	     43.77329112	     43.77329112	     19.32457603	      0.00000000	      0.00000000	     49.14015373	    -14.54518317	    -17.45279451	     98.31629221	     98.31629221	     14.09503871	      0.00000000	      0.00000000	    -55.23600951	     12.80836401	      5.90957354	     20.44015201	    -33.63575329	     -4.39935188	     98.06144612	     80.97087240	      0.00000000	      0.00000000	     -9.68919231	    -12.12151249	     11.49018439	     41.72524531	     83.64162965	      0.00000000	      0.00000000
      3.76500000	      4.66326167	    -14.62988570	      4.54625178	     -0.70711922	      0.86700606	      0.13494756	     19.07302075	     -7.61332689	      5.70558587	     44.40647664	     44.40647664	     20.57777531	      0.00000000	      0.00000000	     50.44304697	    -15.58115694	    -18.80534659	     97.15682839	     97.15682839	     14.05822167	      0.00000000	      0.00000000	    -55.06918812	     11.91661114	      6.94223351	     22.03623271	    -32.75260066	     -3.52556387	     99.14887346	     82.31271545	      0.00000000	      0.00000000	     -9.97986313	    -11.65594803	     11.01345277	     42.06495914	     83.13985910	      0.00000000	      0.00000000
      3.77000000	      4.32870045	    -14.70837853	      3.97539488	     -0.68465684	      0.86517844	      0.13130007	     18.14436384	     -7.79570831	      5.89101119	     44.79193694	     44.79193694	     21.65435527	      0.00000000	      0.00000000	     51.76338978	    -16.57865670	    -20.13054015	     95.78905098	     95.78905098	     13.90882456	      0.00000000	      0.00000000	    -54.74102610	     11.01325270	      7.98468445	     23.41357816	    -31.83820910	     -2.72038428	    100.43591417	     83.07155054	      0.00000000	      0.00000000	    -10.40509638	    -11.39362848	     10.49427257	     42.86917170	     82.39975093	      0.00000000	      0.00000000
